<?xml version="1.0" encoding="UTF-8" standalone="no"?>
<!-- Generator: Adobe Illustrator 16.0.0, SVG Export Plug-In . SVG Version: 6.00 Build 0)  -->

<svg
   xmlns:dc="http://purl.org/dc/elements/1.1/"
   xmlns:cc="http://creativecommons.org/ns#"
   xmlns:rdf="http://www.w3.org/1999/02/22-rdf-syntax-ns#"
   xmlns:svg="http://www.w3.org/2000/svg"
   xmlns="http://www.w3.org/2000/svg"
   xmlns:sodipodi="http://sodipodi.sourceforge.net/DTD/sodipodi-0.dtd"
   xmlns:inkscape="http://www.inkscape.org/namespaces/inkscape"
   version="1.1"
   id="Capa_1"
   x="0px"
   y="0px"
   width="511.626px"
   height="511.626px"
   viewBox="0 0 511.626 511.626"
   style="enable-background:new 0 0 511.626 511.626;"
   xml:space="preserve"
   sodipodi:docname="bubble.svg"
   inkscape:version="0.92.4 (5da689c313, 2019-01-14)"><metadata
   id="metadata41"><rdf:RDF><cc:Work
       rdf:about=""><dc:format>image/svg+xml</dc:format><dc:type
         rdf:resource="http://purl.org/dc/dcmitype/StillImage" /><dc:title></dc:title></cc:Work></rdf:RDF></metadata><defs
   id="defs39" /><sodipodi:namedview
   pagecolor="#ffffff"
   bordercolor="#666666"
   borderopacity="1"
   objecttolerance="10"
   gridtolerance="10"
   guidetolerance="10"
   inkscape:pageopacity="0"
   inkscape:pageshadow="2"
   inkscape:window-width="1920"
   inkscape:window-height="1046"
   id="namedview37"
   showgrid="false"
   inkscape:zoom="0.46127444"
   inkscape:cx="255.813"
   inkscape:cy="255.813"
   inkscape:window-x="-11"
   inkscape:window-y="192"
   inkscape:window-maximized="1"
   inkscape:current-layer="Capa_1" />
<g
   id="g4"
   style="fill:#6eb5c2;fill-opacity:1"
   transform="matrix(-1,0,0,1,511.625,0)">
	<path
   d="M 477.371,127.44 C 454.528,99.366 423.5,77.191 384.295,60.917 345.091,44.645 302.26,36.507 255.817,36.507 c -34.643,0 -67.762,4.805 -99.357,14.417 -31.595,9.611 -58.812,22.602 -81.653,38.97 -22.845,16.37 -41.018,35.832 -54.534,58.385 C 6.757,170.833 0,194.484 0,219.228 c 0,28.549 8.61,55.3 25.837,80.234 17.227,24.931 40.778,45.871 70.664,62.811 -2.096,7.611 -4.57,14.846 -7.426,21.693 -2.855,6.852 -5.424,12.474 -7.708,16.851 -2.286,4.377 -5.376,9.233 -9.281,14.562 -3.899,5.328 -6.849,9.089 -8.848,11.275 -1.997,2.19 -5.28,5.812 -9.851,10.849 -4.565,5.048 -7.517,8.329 -8.848,9.855 -0.193,0.089 -0.953,0.952 -2.285,2.567 -1.331,1.615 -1.999,2.423 -1.999,2.423 l -1.713,2.566 c -0.953,1.431 -1.381,2.334 -1.287,2.707 0.096,0.373 -0.094,1.331 -0.57,2.851 -0.477,1.526 -0.428,2.669 0.142,3.433 v 0.284 c 0.765,3.429 2.43,6.187 4.998,8.277 2.568,2.092 5.474,2.95 8.708,2.563 12.375,-1.522 23.223,-3.606 32.548,-6.276 49.87,-12.758 93.649,-35.782 131.334,-69.097 14.272,1.522 28.072,2.286 41.396,2.286 46.442,0 89.271,-8.138 128.479,-24.417 39.208,-16.272 70.233,-38.448 93.072,-66.517 22.843,-28.062 34.263,-58.663 34.263,-91.781 10e-4,-33.119 -11.418,-63.718 -34.254,-91.787 z"
   id="path2"
   style="fill:#6eb5c2;fill-opacity:1"
   inkscape:connector-curvature="0" />
</g>
<g
   id="g6">
</g>
<g
   id="g8">
</g>
<g
   id="g10">
</g>
<g
   id="g12">
</g>
<g
   id="g14">
</g>
<g
   id="g16">
</g>
<g
   id="g18">
</g>
<g
   id="g20">
</g>
<g
   id="g22">
</g>
<g
   id="g24">
</g>
<g
   id="g26">
</g>
<g
   id="g28">
</g>
<g
   id="g30">
</g>
<g
   id="g32">
</g>
<g
   id="g34">
</g>
</svg>