<?xml version="1.0" encoding="UTF-8" standalone="no"?>
<!DOCTYPE svg PUBLIC "-//W3C//DTD SVG 1.1//EN" "http://www.w3.org/Graphics/SVG/1.1/DTD/svg11.dtd">
<svg width="100%" height="100%" viewBox="0 0 122 122" version="1.1" xmlns="http://www.w3.org/2000/svg" xmlns:xlink="http://www.w3.org/1999/xlink" xml:space="preserve" xmlns:serif="http://www.serif.com/" style="fill-rule:evenodd;clip-rule:evenodd;stroke-linejoin:round;stroke-miterlimit:1.41421;">
    <path d="M30,108.785C39,113.386 49.1,115.785 59.2,115.985C59.7,115.985 60.3,115.985 60.8,115.985C71,115.985 81.1,113.785 90.3,109.385C98.699,105.385 106.3,99.385 111.901,91.885C118.3,83.284 121.6,72.985 121.6,62.284L121.6,12.184C121.6,7.484 116.901,4.384 112.6,6.084L89.8,15.584C88.3,16.184 86.6,16.284 85.1,15.684C77.7,12.784 69.5,11.284 60.8,11.284C52.1,11.284 43.9,12.884 36.5,15.684C35,16.284 33.3,16.184 31.8,15.584L9,6.385C4.7,4.585 0,7.785 0,12.485L0,63.585C0,73.485 3.2,83.085 8.9,91.085C14.3,98.585 21.7,104.585 30,108.785ZM83,62.485C88.5,62.485 93,66.985 93,72.485C93,77.985 88.5,82.485 83,82.485C77.5,82.485 73,77.985 73,72.485C73,66.886 77.5,62.485 83,62.485ZM38.6,62.485C44.1,62.485 48.6,66.985 48.6,72.485C48.6,77.985 44.1,82.485 38.6,82.485C33.1,82.485 28.6,77.985 28.6,72.485C28.6,66.886 33.1,62.485 38.6,62.485Z" style="fill:rgb(75,162,178);fill-rule:nonzero;"/>
</svg>
