<?xml version="1.0" encoding="UTF-8" standalone="no"?>
<svg
   xmlns:dc="http://purl.org/dc/elements/1.1/"
   xmlns:cc="http://creativecommons.org/ns#"
   xmlns:rdf="http://www.w3.org/1999/02/22-rdf-syntax-ns#"
   xmlns:svg="http://www.w3.org/2000/svg"
   xmlns="http://www.w3.org/2000/svg"
   xmlns:sodipodi="http://sodipodi.sourceforge.net/DTD/sodipodi-0.dtd"
   xmlns:inkscape="http://www.inkscape.org/namespaces/inkscape"
   viewBox="0 0 16 16"
   version="1.1"
   id="svg4"
   sodipodi:docname="githubLight.svg"
   inkscape:version="0.92.4 (5da689c313, 2019-01-14)">
  <metadata
     id="metadata10">
    <rdf:RDF>
      <cc:Work
         rdf:about="">
        <dc:format>image/svg+xml</dc:format>
        <dc:type
           rdf:resource="http://purl.org/dc/dcmitype/StillImage" />
        <dc:title></dc:title>
      </cc:Work>
    </rdf:RDF>
  </metadata>
  <defs
     id="defs8" />
  <sodipodi:namedview
     pagecolor="#ffffff"
     bordercolor="#666666"
     borderopacity="1"
     objecttolerance="10"
     gridtolerance="10"
     guidetolerance="10"
     inkscape:pageopacity="0"
     inkscape:pageshadow="2"
     inkscape:window-width="1920"
     inkscape:window-height="1046"
     id="namedview6"
     showgrid="false"
     inkscape:zoom="14.75"
     inkscape:cx="8"
     inkscape:cy="8"
     inkscape:window-x="-11"
     inkscape:window-y="192"
     inkscape:window-maximized="1"
     inkscape:current-layer="svg4" />
  <path
     d="M7.499,1C3.91,1,1,3.906,1,7.49c0,2.867,1.862,5.299,4.445,6.158C5.77,13.707,6,13.375,6,13.125 c0-0.154,0.003-0.334,0-0.875c-1.808,0.392-2.375-0.875-2.375-0.875c-0.296-0.75-0.656-0.963-0.656-0.963 c-0.59-0.403,0.044-0.394,0.044-0.394C3.666,10.064,4,10.625,4,10.625c0.5,0.875,1.63,0.791,2,0.625 c0-0.397,0.044-0.688,0.154-0.873C4.111,10.02,2.997,8.84,3,7.208c0.002-0.964,0.335-1.715,0.876-2.269 C3.639,4.641,3.479,3.625,3.961,3c1.206,0,1.927,0.873,1.927,0.873s0.565-0.248,1.61-0.248c1.045,0,1.608,0.234,1.608,0.234 S9.829,3,11.035,3c0.482,0.625,0.322,1.641,0.132,1.918C11.684,5.461,12,6.21,12,7.208c0,1.631-1.11,2.81-3.148,3.168 C8.982,10.572,9,10.842,9,11.25c0,0.867,0,1.662,0,1.875c0,0.25,0.228,0.585,0.558,0.522C12.139,12.787,14,10.356,14,7.49 C14,3.906,11.09,1,7.499,1z"
     id="path2"
     style="fill:#fbf8e5;fill-opacity:1" />
  <path
     style="opacity:0;stroke:none;stroke-width:0.10249566;stroke-miterlimit:4;stroke-dasharray:none;stroke-opacity:1"
     d="M 4.9423729,13.416671 C 3.1517161,12.62108 1.8567294,11.142061 1.2741207,9.2271186 1.1062795,8.6754515 1.0880327,8.5129451 1.0838091,7.5322034 1.0798199,6.6058981 1.1016231,6.3649039 1.2330822,5.8822625 1.8451403,3.6351412 3.5505847,1.9063279 5.7943912,1.2584519 6.4372394,1.0728361 7.8133898,1.0045457 8.5420983,1.1220991 c 2.6022397,0.4197863 4.6978757,2.423056 5.2872097,5.0541721 0.17693,0.7899169 0.161792,1.9886813 -0.0351,2.779661 -0.185397,0.7447898 -0.688513,1.8223868 -1.111303,2.3802348 -0.659039,0.869568 -1.734809,1.714546 -2.675275,2.101333 -0.4765141,0.195977 -0.6531561,0.201718 -0.827967,0.02691 -0.1256902,-0.12569 -0.1355932,-0.225989 -0.1355932,-1.373329 0,-0.680755 -0.028837,-1.338285 -0.064083,-1.46118 -0.046527,-0.162229 -0.041883,-0.229139 0.016949,-0.244233 C 10.552504,9.9865946 11.445565,9.3384956 11.822466,8.3351641 12.198512,7.3341119 12.000913,5.8679853 11.393005,5.1486797 11.2359,4.9627861 11.221622,4.9096529 11.284403,4.7445291 11.408024,4.4193797 11.373323,3.6063994 11.221138,3.2623597 11.146587,3.0938246 11.039614,2.9559322 10.98342,2.9559322 c -0.479555,0 -1.4348729,0.3913693 -1.7349169,0.7107513 C 9.1065492,3.8177868 9.0916393,3.8195142 8.7510814,3.7243101 8.2725336,3.5905305 6.7601463,3.5907002 6.2664497,3.7245881 L 5.8956112,3.825158 5.6594915,3.6178422 C 5.3192424,3.3190996 4.6580381,3.0289879 4.2692873,3.0078728 3.9570344,2.9909127 3.9290582,3.003384 3.8031713,3.2156546 3.6204523,3.5237559 3.5734574,4.2501327 3.7107699,4.6438566 L 3.8147313,4.9419512 3.5843409,5.2436845 C 3.1245016,5.8459184 2.8956543,6.8178738 3.0135827,7.6677966 3.1856277,8.9077431 4.0823399,9.8325308 5.5186441,10.251289 l 0.5084745,0.148248 -0.024584,0.396841 c -0.013521,0.218263 -0.059284,0.419257 -0.1016949,0.446652 -0.042411,0.0274 -0.2754161,0.04961 -0.517789,0.04936 C 4.7858523,11.291778 4.4796484,11.139311 4.0275572,10.617456 3.8241433,10.382652 3.5587588,10.149194 3.437814,10.09866 3.1730069,9.9880163 2.7646101,9.9782624 2.7010753,10.081064 c -0.025251,0.04086 0.09865,0.221051 0.2753346,0.400433 0.1766846,0.179382 0.434177,0.534937 0.5722053,0.790123 0.4272173,0.789836 0.9473592,1.07552 1.9263818,1.058055 l 0.5326242,-0.0095 -0.025164,0.498324 c -0.040677,0.805526 -0.2728552,0.939056 -1.040084,0.598175 z"
     id="path4558"
     inkscape:connector-curvature="0" />
  <path
     style="opacity:0;stroke:none;stroke-width:0.10249566;stroke-miterlimit:4;stroke-dasharray:none;stroke-opacity:1;fill:#ea0000;fill-opacity:1"
     d="M 4.9423729,13.416671 C 3.1517161,12.62108 1.8567294,11.142061 1.2741207,9.2271186 1.1062795,8.6754515 1.0880327,8.5129451 1.0838091,7.5322034 1.0798199,6.6058981 1.1016231,6.3649039 1.2330822,5.8822625 1.8451403,3.6351412 3.5505847,1.9063279 5.7943912,1.2584519 6.4372394,1.0728361 7.8133898,1.0045457 8.5420983,1.1220991 c 2.6022397,0.4197863 4.6978757,2.423056 5.2872097,5.0541721 0.17693,0.7899169 0.161792,1.9886813 -0.0351,2.779661 -0.185397,0.7447898 -0.688513,1.8223868 -1.111303,2.3802348 -0.659039,0.869568 -1.734809,1.714546 -2.675275,2.101333 -0.4765141,0.195977 -0.6531561,0.201718 -0.827967,0.02691 -0.1256902,-0.12569 -0.1355932,-0.225989 -0.1355932,-1.373329 0,-0.680755 -0.028837,-1.338285 -0.064083,-1.46118 -0.046527,-0.162229 -0.041883,-0.229139 0.016949,-0.244233 C 10.552504,9.9865946 11.445565,9.3384956 11.822466,8.3351641 12.198512,7.3341119 12.000913,5.8679853 11.393005,5.1486797 11.2359,4.9627861 11.221622,4.9096529 11.284403,4.7445291 11.408024,4.4193797 11.373323,3.6063994 11.221138,3.2623597 11.146587,3.0938246 11.039614,2.9559322 10.98342,2.9559322 c -0.479555,0 -1.4348729,0.3913693 -1.7349169,0.7107513 C 9.1065492,3.8177868 9.0916393,3.8195142 8.7510814,3.7243101 8.2725336,3.5905305 6.7601463,3.5907002 6.2664497,3.7245881 L 5.8956112,3.825158 5.6594915,3.6178422 C 5.3192424,3.3190996 4.6580381,3.0289879 4.2692873,3.0078728 3.9570344,2.9909127 3.9290582,3.003384 3.8031713,3.2156546 3.6204523,3.5237559 3.5734574,4.2501327 3.7107699,4.6438566 L 3.8147313,4.9419512 3.5843409,5.2436845 C 3.1245016,5.8459184 2.8956543,6.8178738 3.0135827,7.6677966 3.1856277,8.9077431 4.0823399,9.8325308 5.5186441,10.251289 l 0.5084745,0.148248 -0.024584,0.396841 c -0.013521,0.218263 -0.059284,0.419257 -0.1016949,0.446652 -0.042411,0.0274 -0.2754161,0.04961 -0.517789,0.04936 C 4.7858523,11.291778 4.4796484,11.139311 4.0275572,10.617456 3.8241433,10.382652 3.5587588,10.149194 3.437814,10.09866 3.1730069,9.9880163 2.7646101,9.9782624 2.7010753,10.081064 c -0.025251,0.04086 0.09865,0.221051 0.2753346,0.400433 0.1766846,0.179382 0.434177,0.534937 0.5722053,0.790123 0.4272173,0.789836 0.9473592,1.07552 1.9263818,1.058055 l 0.5326242,-0.0095 -0.025164,0.498324 c -0.040677,0.805526 -0.2728552,0.939056 -1.040084,0.598175 z"
     id="path4560"
     inkscape:connector-curvature="0" />
  <path
     style="opacity:0;fill:#ea0000;fill-opacity:1;stroke:none;stroke-width:0.10249566;stroke-miterlimit:4;stroke-dasharray:none;stroke-opacity:1"
     d="M 4.9423729,13.416671 C 3.1517161,12.62108 1.8567294,11.142061 1.2741207,9.2271186 1.1062795,8.6754515 1.0880327,8.5129451 1.0838091,7.5322034 1.0798199,6.6058981 1.1016231,6.3649039 1.2330822,5.8822625 1.8451403,3.6351412 3.5505847,1.9063279 5.7943912,1.2584519 6.4372394,1.0728361 7.8133898,1.0045457 8.5420983,1.1220991 c 2.6022397,0.4197863 4.6978757,2.423056 5.2872097,5.0541721 0.17693,0.7899169 0.161792,1.9886813 -0.0351,2.779661 -0.185397,0.7447898 -0.688513,1.8223868 -1.111303,2.3802348 -0.659039,0.869568 -1.734809,1.714546 -2.675275,2.101333 -0.4765141,0.195977 -0.6531561,0.201718 -0.827967,0.02691 -0.1256902,-0.12569 -0.1355932,-0.225989 -0.1355932,-1.373329 0,-0.680755 -0.028837,-1.338285 -0.064083,-1.46118 -0.046527,-0.162229 -0.041883,-0.229139 0.016949,-0.244233 C 10.552504,9.9865946 11.445565,9.3384956 11.822466,8.3351641 12.198512,7.3341119 12.000913,5.8679853 11.393005,5.1486797 11.2359,4.9627861 11.221622,4.9096529 11.284403,4.7445291 11.408024,4.4193797 11.373323,3.6063994 11.221138,3.2623597 11.146587,3.0938246 11.039614,2.9559322 10.98342,2.9559322 c -0.479555,0 -1.4348729,0.3913693 -1.7349169,0.7107513 C 9.1065492,3.8177868 9.0916393,3.8195142 8.7510814,3.7243101 8.2725336,3.5905305 6.7601463,3.5907002 6.2664497,3.7245881 L 5.8956112,3.825158 5.6594915,3.6178422 C 5.3192424,3.3190996 4.6580381,3.0289879 4.2692873,3.0078728 3.9570344,2.9909127 3.9290582,3.003384 3.8031713,3.2156546 3.6204523,3.5237559 3.5734574,4.2501327 3.7107699,4.6438566 L 3.8147313,4.9419512 3.5843409,5.2436845 C 3.1245016,5.8459184 2.8956543,6.8178738 3.0135827,7.6677966 3.1856277,8.9077431 4.0823399,9.8325308 5.5186441,10.251289 l 0.5084745,0.148248 -0.024584,0.396841 c -0.013521,0.218263 -0.059284,0.419257 -0.1016949,0.446652 -0.042411,0.0274 -0.2754161,0.04961 -0.517789,0.04936 C 4.7858523,11.291778 4.4796484,11.139311 4.0275572,10.617456 3.8241433,10.382652 3.5587588,10.149194 3.437814,10.09866 3.1730069,9.9880163 2.7646101,9.9782624 2.7010753,10.081064 c -0.025251,0.04086 0.09865,0.221051 0.2753346,0.400433 0.1766846,0.179382 0.434177,0.534937 0.5722053,0.790123 0.4272173,0.789836 0.9473592,1.07552 1.9263818,1.058055 l 0.5326242,-0.0095 -0.025164,0.498324 c -0.040677,0.805526 -0.2728552,0.939056 -1.040084,0.598175 z"
     id="path4562"
     inkscape:connector-curvature="0" />
</svg>
