<?xml version="1.0" encoding="UTF-8" standalone="no"?>
<!-- Generator: Adobe Illustrator 18.1.1, SVG Export Plug-In . SVG Version: 6.00 Build 0)  -->

<svg
   xmlns:dc="http://purl.org/dc/elements/1.1/"
   xmlns:cc="http://creativecommons.org/ns#"
   xmlns:rdf="http://www.w3.org/1999/02/22-rdf-syntax-ns#"
   xmlns:svg="http://www.w3.org/2000/svg"
   xmlns="http://www.w3.org/2000/svg"
   xmlns:sodipodi="http://sodipodi.sourceforge.net/DTD/sodipodi-0.dtd"
   xmlns:inkscape="http://www.inkscape.org/namespaces/inkscape"
   version="1.1"
   id="Capa_1"
   x="0px"
   y="0px"
   viewBox="0 0 40.029 40.029"
   style="enable-background:new 0 0 40.029 40.029;"
   xml:space="preserve"
   sodipodi:docname="honecomb.svg"
   inkscape:version="0.92.4 (5da689c313, 2019-01-14)"><metadata
   id="metadata47"><rdf:RDF><cc:Work
       rdf:about=""><dc:format>image/svg+xml</dc:format><dc:type
         rdf:resource="http://purl.org/dc/dcmitype/StillImage" /><dc:title></dc:title></cc:Work></rdf:RDF></metadata><defs
   id="defs45" /><sodipodi:namedview
   pagecolor="#ffffff"
   bordercolor="#666666"
   borderopacity="1"
   objecttolerance="10"
   gridtolerance="10"
   guidetolerance="10"
   inkscape:pageopacity="0"
   inkscape:pageshadow="2"
   inkscape:window-width="1920"
   inkscape:window-height="1046"
   id="namedview43"
   showgrid="false"
   inkscape:zoom="5.8957257"
   inkscape:cx="20.0145"
   inkscape:cy="20.0145"
   inkscape:window-x="-11"
   inkscape:window-y="192"
   inkscape:window-maximized="1"
   inkscape:current-layer="Capa_1" />
<g
   id="g10"
   style="fill:#6eb5c2;fill-opacity:1">
	<g
   id="b123_geometrical_shape"
   style="fill:#6eb5c2;fill-opacity:1">
		<path
   d="M34.408,10.246L23.48,10.367l-5.359,9.527l5.572,9.402l10.928-0.123l5.359-9.525L34.408,10.246z M33.661,27.551    l-9.043,0.104l-4.61-7.781l4.434-7.883l9.043-0.102l4.609,7.779L33.661,27.551z"
   id="path2"
   style="fill:#6eb5c2;fill-opacity:1" />
		<path
   d="M16.549,18.932l5.357-9.527L16.334,0L5.406,0.125L0.049,9.65l5.57,9.402L16.549,18.932z M6.365,1.746l9.047-0.102    l4.607,7.781l-4.432,7.883l-9.044,0.104L1.936,9.629L6.365,1.746z"
   id="path4"
   style="fill:#6eb5c2;fill-opacity:1" />
		<path
   d="M5.644,21.098l-5.358,9.525l5.57,9.406l10.93-0.123l5.357-9.527l-5.571-9.406L5.644,21.098z M15.823,38.283l-9.044,0.104    L2.17,30.602l4.433-7.881l9.046-0.105l4.607,7.783L15.823,38.283z"
   id="path6"
   style="fill:#6eb5c2;fill-opacity:1" />
	</g>
	<g
   id="Capa_1_81_"
   style="fill:#6eb5c2;fill-opacity:1">
	</g>
</g>
<g
   id="g12">
</g>
<g
   id="g14">
</g>
<g
   id="g16">
</g>
<g
   id="g18">
</g>
<g
   id="g20">
</g>
<g
   id="g22">
</g>
<g
   id="g24">
</g>
<g
   id="g26">
</g>
<g
   id="g28">
</g>
<g
   id="g30">
</g>
<g
   id="g32">
</g>
<g
   id="g34">
</g>
<g
   id="g36">
</g>
<g
   id="g38">
</g>
<g
   id="g40">
</g>
</svg>