<?xml version="1.0" encoding="UTF-8" standalone="no"?>
<!-- Generator: Adobe Illustrator 16.0.0, SVG Export Plug-In . SVG Version: 6.00 Build 0)  -->

<svg
   xmlns:dc="http://purl.org/dc/elements/1.1/"
   xmlns:cc="http://creativecommons.org/ns#"
   xmlns:rdf="http://www.w3.org/1999/02/22-rdf-syntax-ns#"
   xmlns:svg="http://www.w3.org/2000/svg"
   xmlns="http://www.w3.org/2000/svg"
   xmlns:sodipodi="http://sodipodi.sourceforge.net/DTD/sodipodi-0.dtd"
   xmlns:inkscape="http://www.inkscape.org/namespaces/inkscape"
   version="1.1"
   id="Capa_1"
   x="0px"
   y="0px"
   width="510px"
   height="510px"
   viewBox="0 0 510 510"
   style="enable-background:new 0 0 510 510;"
   xml:space="preserve"
   sodipodi:docname="linkedinLight.svg"
   inkscape:version="0.92.4 (5da689c313, 2019-01-14)"><metadata
   id="metadata4646"><rdf:RDF><cc:Work
       rdf:about=""><dc:format>image/svg+xml</dc:format><dc:type
         rdf:resource="http://purl.org/dc/dcmitype/StillImage" /><dc:title></dc:title></cc:Work></rdf:RDF></metadata><defs
   id="defs4644" /><sodipodi:namedview
   pagecolor="#ffffff"
   bordercolor="#666666"
   borderopacity="1"
   objecttolerance="10"
   gridtolerance="10"
   guidetolerance="10"
   inkscape:pageopacity="0"
   inkscape:pageshadow="2"
   inkscape:window-width="1920"
   inkscape:window-height="1046"
   id="namedview4642"
   showgrid="false"
   inkscape:zoom="0.4627451"
   inkscape:cx="255"
   inkscape:cy="255"
   inkscape:window-x="-11"
   inkscape:window-y="192"
   inkscape:window-maximized="1"
   inkscape:current-layer="Capa_1" />
<g
   id="g4609"
   style="fill:#fbf8e5;fill-opacity:1">
	<g
   id="post-linkedin"
   style="fill:#fbf8e5;fill-opacity:1">
		<path
   d="M459,0H51C22.95,0,0,22.95,0,51v408c0,28.05,22.95,51,51,51h408c28.05,0,51-22.95,51-51V51C510,22.95,487.05,0,459,0z     M153,433.5H76.5V204H153V433.5z M114.75,160.65c-25.5,0-45.9-20.4-45.9-45.9s20.4-45.9,45.9-45.9s45.9,20.4,45.9,45.9    S140.25,160.65,114.75,160.65z M433.5,433.5H357V298.35c0-20.399-17.85-38.25-38.25-38.25s-38.25,17.851-38.25,38.25V433.5H204    V204h76.5v30.6c12.75-20.4,40.8-35.7,63.75-35.7c48.45,0,89.25,40.8,89.25,89.25V433.5z"
   id="path4606"
   style="fill:#fbf8e5;fill-opacity:1" />
	</g>
</g>
<g
   id="g4611">
</g>
<g
   id="g4613">
</g>
<g
   id="g4615">
</g>
<g
   id="g4617">
</g>
<g
   id="g4619">
</g>
<g
   id="g4621">
</g>
<g
   id="g4623">
</g>
<g
   id="g4625">
</g>
<g
   id="g4627">
</g>
<g
   id="g4629">
</g>
<g
   id="g4631">
</g>
<g
   id="g4633">
</g>
<g
   id="g4635">
</g>
<g
   id="g4637">
</g>
<g
   id="g4639">
</g>
</svg>