<?xml version="1.0" encoding="UTF-8" standalone="no"?>
<!DOCTYPE svg PUBLIC "-//W3C//DTD SVG 1.1//EN" "http://www.w3.org/Graphics/SVG/1.1/DTD/svg11.dtd">
<svg width="100%" height="100%" viewBox="0 0 1759 1763" version="1.1" xmlns="http://www.w3.org/2000/svg" xmlns:xlink="http://www.w3.org/1999/xlink" xml:space="preserve" xmlns:serif="http://www.serif.com/" style="fill-rule:evenodd;clip-rule:evenodd;stroke-linejoin:round;stroke-miterlimit:2;">
    <g id="Artboard1" transform="matrix(0.708902,0,0,0.83942,0,-425.328)">
        <rect x="0" y="506.693" width="2480.32" height="2099.85" style="fill:none;"/>
        <g transform="matrix(1.41063,0,0,1.1913,-536.721,-299.742)">
            <path d="M1271.22,716.191C1737.75,716.191 2116.52,1094.96 2116.52,1561.49C2116.52,2028.03 1737.75,2406.79 1271.22,2406.79C804.683,2406.79 425.917,2028.03 425.917,1561.49C425.917,1094.96 804.683,716.191 1271.22,716.191ZM1271.22,979.277C1592.55,979.277 1853.43,1240.16 1853.43,1561.49C1853.43,1882.82 1592.55,2143.71 1271.22,2143.71C949.884,2143.71 689.002,1882.82 689.002,1561.49C689.002,1240.16 949.884,979.277 1271.22,979.277Z" style="fill:rgb(75,162,178);"/>
        </g>
        <g transform="matrix(1.15598,0,0,0.984482,-187.662,-99.1083)">
            <path d="M1249.29,1066.98C1590.79,1066.98 1868.04,1344.23 1868.04,1685.73C1868.04,2027.23 1590.79,2304.48 1249.29,2304.48C907.795,2304.48 630.543,2027.23 630.543,1685.73C630.543,1344.23 907.795,1066.98 1249.29,1066.98ZM1249.29,1376.35C1420.04,1376.35 1558.67,1514.98 1558.67,1685.73C1558.67,1856.48 1420.04,1995.1 1249.29,1995.1C1078.54,1995.1 939.918,1856.48 939.918,1685.73C939.918,1514.98 1078.54,1376.35 1249.29,1376.35Z" style="fill:rgb(75,162,178);"/>
        </g>
    </g>
</svg>
